<mxfile host="app.diagrams.net" agent="Mozilla/5.0 (Windows NT 10.0; Win64; x64) AppleWebKit/537.36 (KHTML, like Gecko) Chrome/129.0.0.0 Safari/537.36" version="24.7.7">
  <diagram name="Page-1" id="QzjtaxJOUR1EDCqGGahE">
    <mxGraphModel dx="1112" dy="835" grid="0" gridSize="10" guides="1" tooltips="1" connect="1" arrows="1" fold="1" page="0" pageScale="1" pageWidth="850" pageHeight="1100" math="0" shadow="0">
      <root>
        <mxCell id="0" />
        <mxCell id="1" parent="0" />
        <mxCell id="o_M07ogk1qcOoS7NQp81-1" value="" style="whiteSpace=wrap;html=1;aspect=fixed;" vertex="1" parent="1">
          <mxGeometry x="31" y="31" width="209" height="209" as="geometry" />
        </mxCell>
        <mxCell id="o_M07ogk1qcOoS7NQp81-2" value="CPU" style="text;html=1;align=center;verticalAlign=middle;whiteSpace=wrap;rounded=0;fontSize=16;" vertex="1" parent="1">
          <mxGeometry x="105.5" y="40" width="60" height="30" as="geometry" />
        </mxCell>
        <mxCell id="o_M07ogk1qcOoS7NQp81-3" value="ALU" style="rounded=0;whiteSpace=wrap;html=1;" vertex="1" parent="1">
          <mxGeometry x="75.5" y="75" width="120" height="35" as="geometry" />
        </mxCell>
        <mxCell id="o_M07ogk1qcOoS7NQp81-4" value="CU" style="rounded=0;whiteSpace=wrap;html=1;" vertex="1" parent="1">
          <mxGeometry x="75.5" y="124" width="120" height="35" as="geometry" />
        </mxCell>
        <mxCell id="o_M07ogk1qcOoS7NQp81-5" value="Registers" style="rounded=0;whiteSpace=wrap;html=1;" vertex="1" parent="1">
          <mxGeometry x="75.5" y="173" width="120" height="35" as="geometry" />
        </mxCell>
        <mxCell id="o_M07ogk1qcOoS7NQp81-6" value="Cache" style="rounded=0;whiteSpace=wrap;html=1;" vertex="1" parent="1">
          <mxGeometry x="-89" y="306" width="120" height="60" as="geometry" />
        </mxCell>
        <mxCell id="o_M07ogk1qcOoS7NQp81-7" value="Clock" style="rounded=0;whiteSpace=wrap;html=1;" vertex="1" parent="1">
          <mxGeometry x="240" y="306" width="120" height="60" as="geometry" />
        </mxCell>
        <mxCell id="o_M07ogk1qcOoS7NQp81-8" value="Bus" style="rounded=0;whiteSpace=wrap;html=1;" vertex="1" parent="1">
          <mxGeometry x="75.5" y="394" width="120" height="60" as="geometry" />
        </mxCell>
        <mxCell id="o_M07ogk1qcOoS7NQp81-9" value="" style="endArrow=none;dashed=1;html=1;rounded=0;fontSize=12;startSize=8;endSize=8;curved=1;entryX=0.25;entryY=1;entryDx=0;entryDy=0;" edge="1" parent="1" target="o_M07ogk1qcOoS7NQp81-1">
          <mxGeometry width="50" height="50" relative="1" as="geometry">
            <mxPoint x="32" y="304" as="sourcePoint" />
            <mxPoint x="74" y="242" as="targetPoint" />
          </mxGeometry>
        </mxCell>
        <mxCell id="o_M07ogk1qcOoS7NQp81-11" value="" style="endArrow=none;dashed=1;html=1;rounded=0;fontSize=12;startSize=8;endSize=8;curved=1;entryX=0.75;entryY=1;entryDx=0;entryDy=0;exitX=0;exitY=0;exitDx=0;exitDy=0;" edge="1" parent="1" source="o_M07ogk1qcOoS7NQp81-7" target="o_M07ogk1qcOoS7NQp81-1">
          <mxGeometry width="50" height="50" relative="1" as="geometry">
            <mxPoint x="110" y="302" as="sourcePoint" />
            <mxPoint x="160" y="252" as="targetPoint" />
          </mxGeometry>
        </mxCell>
        <mxCell id="o_M07ogk1qcOoS7NQp81-12" value="" style="endArrow=none;dashed=1;html=1;rounded=0;fontSize=12;startSize=8;endSize=8;curved=1;exitX=0;exitY=0;exitDx=0;exitDy=0;entryX=1;entryY=1;entryDx=0;entryDy=0;" edge="1" parent="1" source="o_M07ogk1qcOoS7NQp81-8" target="o_M07ogk1qcOoS7NQp81-6">
          <mxGeometry width="50" height="50" relative="1" as="geometry">
            <mxPoint x="110" y="302" as="sourcePoint" />
            <mxPoint x="160" y="252" as="targetPoint" />
          </mxGeometry>
        </mxCell>
        <mxCell id="o_M07ogk1qcOoS7NQp81-13" value="" style="endArrow=none;dashed=1;html=1;rounded=0;fontSize=12;startSize=8;endSize=8;curved=1;exitX=1;exitY=0;exitDx=0;exitDy=0;entryX=0;entryY=1;entryDx=0;entryDy=0;" edge="1" parent="1" source="o_M07ogk1qcOoS7NQp81-8" target="o_M07ogk1qcOoS7NQp81-7">
          <mxGeometry width="50" height="50" relative="1" as="geometry">
            <mxPoint x="110" y="302" as="sourcePoint" />
            <mxPoint x="160" y="252" as="targetPoint" />
          </mxGeometry>
        </mxCell>
        <mxCell id="o_M07ogk1qcOoS7NQp81-14" value="Memory" style="rounded=0;whiteSpace=wrap;html=1;" vertex="1" parent="1">
          <mxGeometry x="75.5" y="511" width="120" height="60" as="geometry" />
        </mxCell>
        <mxCell id="o_M07ogk1qcOoS7NQp81-15" value="" style="endArrow=none;dashed=1;html=1;rounded=0;fontSize=12;startSize=8;endSize=8;curved=1;exitX=0.5;exitY=0;exitDx=0;exitDy=0;entryX=0.5;entryY=1;entryDx=0;entryDy=0;" edge="1" parent="1" source="o_M07ogk1qcOoS7NQp81-14" target="o_M07ogk1qcOoS7NQp81-8">
          <mxGeometry width="50" height="50" relative="1" as="geometry">
            <mxPoint x="110" y="302" as="sourcePoint" />
            <mxPoint x="144" y="456" as="targetPoint" />
          </mxGeometry>
        </mxCell>
      </root>
    </mxGraphModel>
  </diagram>
</mxfile>
